<svg xmlns="http://www.w3.org/2000/svg" viewBox="0 0 77.52 122.88" fill="#fbca1b">
  <path d="M1.24 0h75.1c.64 0 1.17.54 1.17 1.2v11.45c0 .66-.53 1.2-1.17 1.2H52.89c3.7 4.3 6.34 9.48 7.54 15.18h15.92c.64 0 1.17.54 1.17 1.2v11.45c0 .66-.53 1.2-1.17 1.2H60.43c-1.44 6.82-4.95 12.91-9.86 17.62-6.44 6.17-15.29 10-25.03 10v.04h-1.08l42.13 48.04c1.14 1.3-.86 4.19-1.75 4.19l-19.48.11L.38 71.6c-.37-.42-.47-1-.31-1.52V51.3h25.46v.04c4.58 0 8.73-1.79 11.73-4.67 1.17-1.12 2.15-2.4 2.92-3.8H1.24c-.64 0-1.17-.54-1.17-1.2V30.22c0-.66.53-1.2 1.17-1.2h38.94c-.76-1.4-1.75-2.68-2.92-3.8-3-2.88-7.15-4.67-11.73-4.67v.04H.07V1.2C.08.54.6 0 1.24 0z" fill-rule="evenodd" clip-rule="evenodd"/>
</svg>
